<svg xmlns="http://www.w3.org/2000/svg" viewBox="0 0 512 512" role="img" aria-labelledby="title">
  <title>Calorie Counter</title>
  <rect width="512" height="512" rx="104" fill="#ec7c0e" />
  <path
    fill="#fff"
    d="M271 64c15 50 49 79 79 115 32 38 58 81 58 144 0 91-67 161-154 161S101 414 101 323c0-61 31-112 69-153 4-4 11-2 12 4 5 34 18 58 38 78-2-71 17-130 40-188 2-6 10-6 11 0Z"
  />
  <path
    fill="#ec7c0e"
    d="M286 270c23 30 40 55 40 91 0 43-31 76-72 76s-72-33-72-76c0-34 19-64 48-94 5-5 13-1 12 6-4 28 3 48 19 66 0-24 6-45 14-67 2-6 8-7 11-2Z"
    opacity=".92"
  />
</svg>
